<?xml version="1.0" encoding="UTF-8" standalone="no"?>
<!-- Created with Inkscape (http://www.inkscape.org/) -->

<svg
   version="1.1"
   id="svg1"
   width="1858.6851"
   height="1945.2968"
   viewBox="0 0 1858.6851 1945.2968"
   xmlns="http://www.w3.org/2000/svg"
   xmlns:svg="http://www.w3.org/2000/svg">
  <defs
     id="defs1" />
  <g
     id="g1"
     transform="translate(-70.657469,-27.351603)">
    <path
       style="fill:currentColor;stroke-width:1.51716"
       d="m 283.02729,1550.193 c 0.51985,-1.6451 4.65309,-9.1982 9.18496,-16.7848 4.53188,-7.5864 8.23978,-14.4512 8.23978,-15.2549 0,-0.8038 0.68122,-1.4614 1.51382,-1.4614 0.8326,0 1.51382,-0.6277 1.51382,-1.3949 0,-0.7671 3.1638,-6.7541 7.03066,-13.3045 3.86686,-6.5502 8.21655,-13.9622 9.66597,-16.471 1.44943,-2.5089 9.61371,-16.5356 18.14286,-31.1705 8.52916,-14.6349 16.74547,-28.7881 18.25844,-31.4514 1.51299,-2.6633 4.49053,-7.6104 6.61675,-10.9934 2.12623,-3.3832 3.86586,-6.4566 3.86586,-6.8298 0,-0.3735 3.47283,-6.3625 7.7174,-13.3089 4.24456,-6.9465 9.25442,-15.3786 11.13301,-18.7378 4.58195,-8.1936 33.26199,-57.4557 38.80268,-66.6491 2.4275,-4.028 4.41364,-7.6082 4.41364,-7.9559 0,-0.3479 2.61054,-4.921 5.80121,-10.1625 3.19065,-5.2415 7.53458,-12.609 9.65317,-16.3722 3.54662,-6.3 10.68064,-18.7764 18.25785,-31.9307 1.68601,-2.927 5.09218,-9.0851 7.56928,-13.6846 2.4771,-4.5996 5.42946,-9.8587 6.56083,-11.6869 2.56735,-4.1489 6.34561,-10.9725 12.05088,-21.7643 2.43162,-4.5995 4.76804,-8.7049 5.19201,-9.1231 0.42398,-0.4181 1.77616,-2.8129 3.00485,-5.3217 1.22868,-2.5089 3.66675,-6.9564 5.41809,-9.8833 3.75383,-6.274 12.54792,-22.333 20.39982,-37.2525 3.08078,-5.854 8.51631,-16.1174 12.07879,-22.8077 3.56248,-6.6902 8.65982,-16.2694 11.32733,-21.2871 2.66765,-5.0177 6.26677,-11.6234 7.99828,-14.6794 1.73136,-3.0559 2.74198,-5.9639 2.24606,-6.4622 -0.49608,-0.4981 -25.04468,-0.9058 -54.55241,-0.9058 -47.23419,0 -53.54534,-0.2747 -52.77276,-2.2968 0.48262,-1.2633 5.22063,-9.303 10.52887,-17.866 5.30827,-8.5631 16.38497,-26.8589 24.61489,-40.6575 8.22993,-13.79858 15.48618,-25.31638 16.12501,-25.59524 0.63869,-0.27871 1.16141,-1.16686 1.16141,-1.97364 0,-0.80678 2.48827,-5.36831 5.52954,-10.13678 3.04112,-4.76846 6.69382,-10.72247 8.11681,-13.23131 1.42299,-2.50884 12.47556,-20.98303 24.56116,-41.05374 12.08561,-20.07072 23.34057,-38.88702 25.01108,-41.814 1.6705,-2.92698 7.63208,-12.8483 13.24806,-22.04738 5.61583,-9.19907 11.75347,-19.46251 13.63909,-22.80763 1.88577,-3.34512 7.9291,-13.46471 13.42972,-22.48787 5.50063,-9.02331 10.00122,-16.76863 10.00122,-17.21201 0,-0.44323 2.04366,-3.78941 4.54147,-7.4359 2.49781,-3.64648 4.54147,-7.362 4.54147,-8.25666 0,-0.89467 0.5318,-1.62664 1.18199,-1.62664 0.65004,0 1.9772,-1.88163 2.94908,-4.1814 0.97202,-2.29977 3.67586,-7.31852 6.00881,-11.15278 6.91439,-11.36459 18.47908,-30.074 27.93639,-45.19546 4.86875,-7.7847 8.85222,-14.43236 8.85222,-14.77265 0,-0.34014 3.74671,-6.39192 8.32603,-13.4483 4.57931,-7.05622 8.32602,-13.30323 8.32602,-13.88224 0,-0.57901 1.4368,-3.07934 3.1928,-5.55625 1.756,-2.47706 2.8552,-4.84282 2.4426,-5.25731 -0.4127,-0.41449 -12.78261,-0.7493 -27.48879,-0.74383 -29.42992,0.0152 -31.03351,-0.52807 -25.41329,-8.5369 2.78982,-3.97582 27.51705,-45.15744 33.97229,-56.57874 1.61888,-2.86418 5.27234,-8.86442 8.11878,-13.33395 2.84661,-4.46954 5.17561,-8.36782 5.17561,-8.66295 0,-0.29498 3.8437,-6.95298 8.5414,-14.79546 4.6979,-7.84233 9.7142,-16.31157 11.1474,-18.82041 1.4331,-2.50884 4.6683,-7.98267 7.1893,-12.16407 17.8897,-29.67243 26.1057,-43.56212 26.1057,-44.13368 0,-0.36432 2.5385,-4.60988 5.6412,-9.43476 7.4088,-11.5212 12.4415,-20.30518 13.52,-23.59738 0.4794,-1.46349 1.4734,-2.6609 2.2088,-2.6609 0.7356,0 1.3373,-0.671 1.3373,-1.49101 0,-0.82001 2.3843,-5.23465 5.2984,-9.81032 2.9141,-4.57552 5.2984,-9.03638 5.2984,-9.91281 0,-0.87642 0.6812,-1.59349 1.5138,-1.59349 0.8326,0 1.5138,-0.62219 1.5138,-1.38275 0,-0.76041 7.4934,-13.82279 16.6521,-29.02743 9.1586,-15.20478 16.652,-27.87214 16.652,-28.14979 0,-0.27764 4.428,-7.76919 9.8399,-16.64805 5.4119,-8.87886 9.8398,-16.46878 9.8398,-16.86655 0,-0.39776 2.2791,-4.30501 5.0645,-8.68256 5.3928,-8.47532 22.7514,-37.64567 28.0092,-47.06842 1.7365,-3.11187 4.8006,-8.24359 6.8095,-11.40381 2.0088,-3.16023 8.6248,-14.29872 14.7024,-24.75222 6.0775,-10.45349 15.6966,-26.70545 21.3761,-36.11527 5.6794,-9.40998 10.3262,-17.48722 10.3262,-17.94946 0,-0.46223 2.7249,-4.8708 6.0553,-9.79664 3.3304,-4.92599 6.0553,-9.38716 6.0553,-9.91387 0,-0.52655 3.0655,-5.71726 6.8122,-11.53458 3.7467,-5.81747 6.8122,-10.93079 6.8122,-11.36307 0,-0.43212 2.3842,-4.52944 5.2984,-9.10511 2.9141,-4.57551 5.2983,-8.69594 5.2983,-9.1562 0,-0.46026 2.0437,-3.82028 4.5415,-7.46676 2.4978,-3.64649 4.5415,-6.99039 4.5415,-7.43103 0,-0.44049 5.4497,-9.75483 12.1105,-20.69839 6.6609,-10.94371 12.1106,-20.25804 12.1106,-20.69853 0,-0.44049 2.0437,-3.7844 4.5415,-7.43088 2.4978,-3.64648 4.5415,-7.07113 4.5415,-7.6103 0,-2.65025 13.86414,-22.07034 15.17524,-21.25641 1.3932,0.86487 12.0735,16.83933 12.0735,18.05832 0,0.29514 3.8374,6.95299 8.5275,14.79547 4.69,7.84248 12.1021,20.41709 16.4712,27.94361 4.3689,7.52652 11.7718,20.0403 16.4505,27.80828 4.6788,7.76813 8.507,14.78148 8.507,15.58522 0,0.80389 0.6812,1.46151 1.5138,1.46151 0.8326,0 1.5138,0.5968 1.5138,1.32619 0,0.72939 3.7467,7.59828 8.326,15.26423 4.5793,7.6658 8.3261,14.2823 8.3261,14.70332 0,0.42088 0.7208,1.59167 1.602,2.60175 0.8812,1.01007 6.4097,10.04722 12.2856,20.08257 11.05,18.87226 48.0456,81.5189 63.5598,107.62953 4.8623,8.18323 8.8404,15.53869 8.8404,16.34547 0,0.80678 0.6813,1.46699 1.5139,1.46699 0.8326,0 1.5138,0.5968 1.5138,1.32619 0,0.72938 3.7467,7.59828 8.326,15.26423 4.5793,7.6658 8.326,14.59552 8.326,15.39926 0,0.80389 0.6813,1.46151 1.5139,1.46151 0.8326,0 1.5138,0.64546 1.5138,1.43445 0,0.78884 6.9063,12.93391 15.3476,26.98903 8.4412,14.05498 17.0707,28.63362 19.1769,32.39688 2.106,3.76326 6.4398,11.13073 9.6303,16.37223 3.1907,5.2415 5.8013,10.20216 5.8013,11.02369 0,0.82153 0.6812,1.49375 1.5138,1.49375 0.8326,0 1.5139,0.66005 1.5139,1.46699 0,0.80693 3.6177,7.47816 8.0396,14.82496 4.4217,7.34679 8.5049,14.38432 9.0737,15.63874 0.5689,1.25442 3.7632,6.62577 7.0987,11.9366 3.3354,5.31068 6.0644,10.27134 6.0644,11.02369 0,0.75219 0.6812,1.36785 1.5138,1.36785 0.8326,0 1.5139,0.68286 1.5139,1.51747 0,0.83476 4.4279,8.78185 9.8398,17.6604 5.4119,8.87856 9.8398,16.39945 9.8398,16.71298 0,0.31368 3.0655,5.37378 6.8122,11.24492 3.7468,5.87099 6.8122,10.94767 6.8122,11.28142 0,0.3336 4.428,7.94116 9.8399,16.90547 5.4119,8.96432 9.8398,16.53158 9.8398,16.81622 0,0.28449 3.0655,5.27693 6.8122,11.0944 3.7468,5.81731 6.8122,11.01821 6.8122,11.55739 0,0.53917 2.0437,3.96381 4.5415,7.61029 2.4978,3.64649 4.5415,6.97671 4.5415,7.40063 0,0.9348 15.9398,26.85963 18.0208,29.30963 0.8123,0.95625 1.0636,2.15365 0.5586,2.66089 -0.505,0.50724 -13.7415,0.92234 -29.4145,0.92234 h -28.4963 l 4.7726,7.98267 c 9.7377,16.28708 21.7788,35.56562 26.5815,42.55859 2.7223,3.96381 4.9496,7.84111 4.9496,8.61627 0,0.77515 0.5218,1.63743 1.1595,1.91614 1.4859,0.64956 12.4649,19.27184 12.4649,21.14268 0,0.77637 0.6813,1.41164 1.5139,1.41164 0.8326,0 1.5138,0.58129 1.5138,1.29198 0,0.71068 3.7467,7.53442 8.326,15.16403 4.5793,7.62961 8.326,14.57469 8.326,15.43362 0,0.85879 0.6812,1.56156 1.5138,1.56156 0.8327,0 1.5139,0.67724 1.5139,1.50485 0,0.82777 3.0655,6.30859 6.8122,12.17973 3.7467,5.87099 6.8122,10.94767 6.8122,11.28142 0,0.3336 4.4279,7.94116 9.8398,16.90547 5.4119,8.96432 9.8399,16.54603 9.8399,16.848 0,0.30213 3.0655,5.3528 6.8122,11.22394 3.7467,5.87099 6.8122,10.91361 6.8122,11.20585 0,0.29209 7.4934,13.00856 16.652,28.25881 9.1586,15.25025 16.6521,28.3467 16.6521,29.1033 0,0.75645 0.6812,1.37545 1.5138,1.37545 0.8326,0 1.5138,0.66279 1.5138,1.47307 0,0.81013 3.0655,6.23272 6.8122,12.05019 3.7467,5.81731 6.8122,11.01821 6.8122,11.55739 0,0.53917 2.0437,3.96381 4.5415,7.61029 2.4978,3.64649 4.5414,7.02597 4.5414,7.51025 0,0.48413 3.7468,6.71381 8.3261,13.84363 4.5793,7.12997 8.326,13.29534 8.326,13.70102 0,0.40552 1.7397,3.50538 3.8658,6.88851 2.1264,3.38294 5.1056,8.32994 6.6206,10.99344 2.4952,4.38608 17.192,28.64448 34.2545,56.53968 l 6.5103,10.6436 -55.9021,0.3985 c -30.7461,0.2193 -55.902,0.798 -55.902,1.2859 0,0.9973 4.8845,10.064 6.0553,11.2399 0.6803,0.6833 4.8374,8.4895 15.3851,28.8897 1.9457,3.7632 3.8783,7.1844 4.2946,7.6025 0.4163,0.4182 3.4248,5.892 6.6856,12.1641 5.6638,10.894 7.3734,14.0314 14.7076,26.989 1.7749,3.1361 5.4314,9.8073 8.1254,14.825 2.694,5.0177 7.3726,13.4652 10.3971,18.7724 3.0245,5.307 5.4989,9.9152 5.4989,10.2404 0,0.3253 1.9824,3.8518 4.4054,7.8367 7.4928,12.323 13.8877,23.8478 14.7772,26.6317 0.4676,1.4635 1.4521,2.6609 2.1875,2.6609 0.7355,0 1.3373,0.5775 1.3373,1.2832 0,0.7058 5.8626,11.4824 13.0279,23.948 7.1654,12.4657 14.581,25.4018 16.4791,28.7469 5.6742,10.0004 20.6358,36.1575 23.4822,41.0537 2.7565,4.7414 11.9592,20.7679 16.7505,29.1707 1.5186,2.6633 4.5007,7.6105 6.627,10.9934 2.1262,3.3832 3.8659,6.4517 3.8659,6.8192 0,0.3675 3.6294,6.7103 8.0655,14.095 17.6231,29.3377 28.2662,47.8799 28.2662,49.2447 0,0.789 0.6812,1.4344 1.5138,1.4344 0.8326,0 1.5139,0.5968 1.5139,1.3262 0,0.7296 3.7467,7.5985 8.326,15.2643 4.5793,7.6659 8.326,14.2006 8.326,14.5216 0,0.3208 4.4279,7.8479 9.8399,16.7268 5.4119,8.8787 9.8398,16.3961 9.8398,16.7052 0,0.309 4.4279,7.8963 9.8398,16.8606 5.412,8.9645 9.8399,16.5894 9.8399,16.9443 0,0.355 1.703,3.1628 3.7845,6.2396 2.0816,3.0767 3.7846,6.1194 3.7846,6.7615 0,0.6423 -132.1567,1.1676 -293.6816,1.1676 h -293.6815 l -0.015,-108.3363 -0.015,-108.3362 -13.7847,-14.4449 c -12.6157,-13.2199 -56.7779,-59.0371 -104.2772,-108.1851 -10.4076,-10.7688 -19.9447,-19.4856 -21.1936,-19.3706 -1.2489,0.1155 -9.41774,7.8219 -18.15294,17.1267 -8.7352,9.3047 -39.5604,41.1571 -68.5005,70.7828 l -52.6041,53.865 v 108.4494 108.4492 H 575.86567 c -291.46108,0 -293.77607,-0.024 -292.83838,-2.9911 z m 228.23479,-87.8941 c 12.65268,-13.1523 36.71232,-37.9399 53.46579,-55.0836 16.75362,-17.1438 39.91859,-41.0918 51.47784,-53.2179 11.55924,-12.126 43.19374,-44.6269 70.29875,-72.2241 27.1051,-27.5973 55.0476,-56.4581 62.0943,-64.1351 7.0466,-7.6771 35.2925,-36.7746 62.7683,-64.6612 56.1616,-57.001 144.2779,-147.8029 156.7759,-161.55378 4.5269,-4.98073 9.7635,-10.65679 11.6369,-12.61323 3.3539,-3.50281 3.4061,-4.16347 3.4061,-43.0216 0,-23.71416 -0.57,-39.46405 -1.428,-39.46405 -0.7854,0 -2.4751,1.50166 -3.755,3.33691 -1.2798,1.83541 -18.5194,20.13017 -38.3099,40.65522 -19.7905,20.52489 -43.4762,45.14848 -52.6348,54.71885 -9.1587,9.57028 -22.4425,23.33558 -29.5196,30.58948 -7.0771,7.2539 -19.6636,20.3008 -27.9701,28.9933 -8.3064,8.6924 -29.4242,30.5433 -46.9285,48.5576 -17.5042,18.0142 -37.5981,38.8832 -44.6528,46.3755 -7.0549,7.4923 -28.1727,29.3951 -46.9285,48.673 -18.75594,19.2778 -40.52259,41.8573 -48.3704,50.1768 -7.8478,8.3193 -24.87967,26.0738 -37.84858,39.4543 -12.96892,13.3805 -30.33004,31.5125 -38.58038,40.2935 -8.25033,8.7809 -23.91703,25.215 -34.81488,36.5203 -20.80719,21.5849 -64.69354,67.8952 -81.23512,85.7216 -5.35084,5.7664 -15.34886,16.2837 -22.21783,23.3718 -6.86897,7.088 -12.48911,12.9755 -12.48919,13.0833 -9e-5,0.108 16.36977,0.015 36.37744,-0.2188 l 36.37761,-0.4151 z m 296.35138,-59.9897 0.03,-85.5642 16.9997,-17.5142 c 9.3498,-9.6327 23.745,-24.6857 31.9894,-33.4512 8.2445,-8.7654 24.5938,-25.8624 36.3318,-37.9934 44.0145,-45.4881 87.9095,-91.4443 89.0223,-93.2025 1.5653,-2.4731 1.52,-72.524 -0.047,-72.524 -0.6849,0 -6.9862,5.9867 -14.0029,13.3039 -13.2363,13.803 -112.1832,115.7113 -166.456,171.438 -17.1038,17.5618 -38.2258,39.4486 -46.938,48.6372 -8.7121,9.1886 -32.242,33.4788 -52.2887,53.9781 -20.04675,20.4994 -47.41,48.9034 -60.80718,63.1201 -13.39733,14.2168 -34.63293,36.1036 -47.19023,48.6373 -12.55731,12.5337 -22.83102,23.4814 -22.83042,24.3282 6.1e-4,1.0222 39.67048,1.6792 118.07813,1.9552 l 118.0771,0.4157 z m 638.80214,83.2632 c 0,-0.8083 -12.4323,-14.1718 -27.6272,-29.6968 -32.9593,-33.6747 -98.7217,-102.0225 -115.5415,-120.0835 -6.5989,-7.086 -23.9194,-25.2119 -38.49,-40.2798 -14.5705,-15.068 -34.0215,-35.271 -43.2242,-44.8958 -9.2028,-9.6247 -27.7167,-28.7893 -41.1419,-42.5879 -13.4253,-13.7986 -25.8762,-26.799 -27.6689,-28.8897 -1.7926,-2.0907 -16.3179,-17.2286 -32.2784,-33.6399 -15.9606,-16.4111 -40.2594,-41.8337 -53.9973,-56.4945 -13.738,-14.6607 -25.8296,-26.721 -26.8704,-26.8003 -1.4654,-0.1125 -1.8923,8.1041 -1.8923,36.4157 v 36.56 l 18.5444,19.997 c 10.1994,10.9982 30.8216,32.692 45.8272,48.2082 15.0056,15.5162 32.3767,33.6145 38.6024,40.2184 6.2258,6.6038 24.0795,25.078 39.6749,41.0537 l 28.3553,29.0467 0.029,84.644 c 0.017,46.5542 0.3771,85.5553 0.8025,86.6691 0.6352,1.6623 21.9156,2.025 118.8351,2.025 74.9713,0 118.0613,-0.5365 118.0615,-1.4696 z m 139.7301,-15.0439 c -7.4415,-7.6432 -17.912,-18.6807 -23.2678,-24.5277 -5.3557,-5.8469 -16.6092,-17.8209 -25.0077,-26.6089 -8.3984,-8.7879 -20.3198,-21.407 -26.4919,-28.0427 -6.172,-6.6358 -25.2507,-26.4784 -42.3972,-44.0948 -17.1463,-17.6164 -36.5611,-37.8202 -43.1439,-44.8971 -6.5827,-7.0771 -20.8602,-22.1301 -31.7276,-33.4512 -10.8673,-11.3212 -23.8105,-24.9891 -28.7627,-30.3729 -4.952,-5.384 -12.4098,-13.2976 -16.5728,-17.5858 -10.5144,-10.8306 -35.958,-37.3727 -79.4373,-82.8675 -20.3777,-21.3223 -44.6321,-46.6363 -53.8989,-56.2536 -26.289,-27.2834 -29.7564,-30.9502 -36.0566,-38.1307 -3.2451,-3.6983 -19.2537,-20.4149 -35.5749,-37.1481 -16.3211,-16.73298 -35.7318,-36.91775 -43.1348,-44.85496 -7.4031,-7.93705 -23.0711,-24.37649 -34.8179,-36.53174 -11.7468,-12.15541 -22.6093,-23.69349 -24.1388,-25.6405 -1.5295,-1.94686 -3.2325,-2.94918 -3.7846,-2.22754 -0.5519,0.72178 -0.6631,18.86769 -0.2468,40.3242 l 0.757,39.012 9.7679,10.40455 c 12.1493,12.94131 62.714,66.32299 81.0355,85.54999 7.5077,7.8788 22.1656,23.0106 32.5731,33.6262 10.4075,10.6156 25.026,25.7226 32.4857,33.571 7.4597,7.8484 26.1932,27.2905 41.6301,43.2046 15.4369,15.9141 35.2011,36.441 43.9204,45.6153 8.7193,9.1743 33.5839,34.8229 55.2545,56.9967 21.6707,22.1741 46.1715,47.4906 54.446,56.2589 8.2746,8.7684 30.7548,32.0409 49.9562,51.7166 19.2013,19.6757 47.0543,48.5719 61.8955,64.2137 l 26.984,28.4397 35.0827,0.408 c 19.2955,0.2242 35.3349,-0.181 35.6431,-0.9006 0.3082,-0.7197 -5.5282,-7.562 -12.9695,-15.2051 z M 484.2176,1332.6445 c 3.24028,-3.7271 16.86463,-18.0815 30.27649,-31.8986 13.41171,-13.817 30.14657,-31.2649 37.18841,-38.773 7.04185,-7.508 23.06793,-24.2564 35.61344,-37.2187 12.5455,-12.9624 40.16367,-42.0089 61.37384,-64.5481 21.21017,-22.5391 53.26978,-56.0663 71.24348,-74.5049 17.9739,-18.4387 38.0699,-39.2867 44.6578,-46.329 12.5702,-13.4369 15.1079,-16.0669 58.9254,-61.06656 14.9973,-15.40186 43.9491,-45.43799 64.3374,-66.74717 20.3885,-21.30902 45.3386,-47.30972 55.4447,-57.77933 10.1061,-10.46947 23.2196,-24.10722 29.1411,-30.30603 l 10.7663,-11.27046 v -39.28646 c 0,-21.60749 -0.5945,-39.2863 -1.321,-39.2863 -0.7266,0 -4.2537,3.25009 -7.8381,7.22242 -3.5843,3.97233 -20.1361,21.59123 -36.7818,39.1531 -16.6457,17.56188 -36.3725,38.43087 -43.8373,46.37552 -7.4648,7.94466 -21.487,22.65559 -31.1606,32.69095 -9.6735,10.03535 -26.3929,27.48319 -37.1541,38.77297 -20.9493,21.9785 -45.7056,47.76968 -81.0296,84.41715 -31.461,32.6396 -80.86719,84.5606 -94.01883,98.8041 -6.1773,6.6902 -22.53309,23.796 -36.34612,38.0127 -35.11038,36.1366 -48.28851,51.5138 -55.41256,64.659 -8.4444,15.5815 -25.19016,46.9835 -35.25193,66.1048 -6.10237,11.597 -14.96792,27.9968 -20.96039,38.773 -2.09255,3.7632 -7.98744,14.3688 -13.09957,23.5678 -11.48893,20.6738 -13.47559,24.1273 -14.43245,25.0884 -1.37416,1.3802 -6.05529,10.3286 -6.05529,11.5751 0,1.2529 5.31314,-4.2194 15.73128,-16.2024 z m 1061.329,9.569 c -2.0446,-3.1361 -4.4084,-6.5283 -5.2526,-7.5384 -0.8445,-1.0101 -1.5352,-2.12 -1.5352,-2.4666 0,-0.3466 -3.5834,-6.7046 -7.9629,-14.1288 -4.3796,-7.4244 -8.9768,-15.5515 -10.216,-18.0603 -1.2391,-2.5089 -2.6618,-4.9037 -3.1616,-5.3218 -0.4997,-0.4182 -6.7028,-12.3922 -13.7846,-26.6089 -12.2144,-24.521 -18.6592,-36.9279 -27.2486,-52.4576 -7.0125,-12.6784 -13.7339,-25.0429 -17.7007,-32.5617 -4.0845,-7.7419 -11.7874,-16.7739 -36.4232,-42.7079 -7.9463,-8.3651 -17.8107,-18.9706 -21.9207,-23.5679 -4.1099,-4.5971 -12.9658,-14.179 -19.6797,-21.2933 -44.8454,-47.5193 -63.5299,-67.4461 -71.9885,-76.7751 -5.3078,-5.8539 -15.5205,-16.8016 -22.6951,-24.32798 -7.1744,-7.52656 -18.1198,-19.09095 -24.323,-25.69863 -6.2032,-6.60767 -15.7065,-16.57978 -21.1184,-22.1602 -5.412,-5.58027 -13.863,-14.54291 -18.7801,-19.91669 -8.7238,-9.53405 -49.9302,-53.01817 -83.4634,-88.07669 -9.1987,-9.61722 -21.804,-22.90191 -28.0119,-29.52144 -6.2079,-6.61969 -19.8462,-20.9885 -30.3073,-31.93069 -10.4613,-10.94234 -23.4045,-24.78764 -28.7626,-30.7675 -5.3584,-5.97986 -10.7642,-10.94112 -12.0131,-11.02506 -1.9736,-0.13228 -2.2113,4.85849 -1.8166,38.13224 0.2498,21.05661 0.9475,39.17044 1.5507,40.25304 0.6032,1.08245 8.2366,9.34246 16.9633,18.35543 8.7268,9.01297 19.9083,20.83477 24.8482,26.27059 4.9398,5.43582 18.5604,19.81831 30.268,31.96125 22.0708,22.89141 73.0342,76.37303 94.0212,98.66721 6.6216,7.03404 17.4891,18.40722 24.1499,25.27392 28.2905,29.1654 115.2974,119.833 134.0137,139.6524 6.2223,6.589 13.6975,14.5002 16.6116,17.5804 2.9141,3.0804 9.3459,10.0056 14.2929,15.3892 4.9471,5.3839 16.8684,18.0181 26.4919,28.0759 9.6235,10.058 31.1218,32.9212 47.7738,50.8071 16.6521,17.886 40.1516,42.7147 52.2212,55.175 12.0695,12.4604 22.492,23.6375 23.161,24.8383 0.6689,1.2007 2.1838,2.1831 3.3663,2.1831 1.5784,0 1.162,-1.5152 -1.5679,-5.7019 z M 644.97817,1003.14 c 9.02042,-9.82618 24.98019,-26.76086 35.46644,-37.6325 10.48605,-10.87164 24.13745,-25.20441 30.33635,-31.85071 6.1988,-6.64614 22.1884,-23.40975 35.5325,-37.25247 13.3439,-13.84256 30.3744,-31.61731 37.8455,-39.49917 7.4711,-7.88186 17.671,-18.52117 22.6667,-23.643 4.9956,-5.12183 14.1683,-14.75228 20.3836,-21.40131 6.2154,-6.64889 22.9053,-24.09292 37.0886,-38.76447 14.1835,-14.67169 31.8722,-33.14587 39.3084,-41.05374 7.4362,-7.90801 28.3837,-29.54516 46.55,-48.08259 l 33.0297,-33.70452 -0.041,-40.80042 -0.041,-40.80042 -15.4758,16.06113 c -8.5117,8.83355 -22.2182,23.20236 -30.459,31.93069 -8.2406,8.72818 -24.2502,25.44876 -35.5766,37.15668 -11.3265,11.70791 -26.3587,27.44518 -33.4053,34.9717 -7.0463,7.52652 -22.373,23.6173 -34.0591,35.7575 -11.6861,12.14005 -31.1251,32.66114 -43.1979,45.60219 -12.0727,12.94121 -27.1342,29.00903 -33.4698,35.70642 -6.3357,6.69738 -19.2728,20.38789 -28.7493,30.42325 -9.4766,10.03536 -24.7951,26.11474 -34.0412,35.73196 -9.2461,9.61722 -21.17339,22.26132 -26.50507,28.09809 -5.33184,5.83678 -16.53654,17.81079 -24.89966,26.60891 -8.36311,8.79812 -17.90019,19.04589 -21.19351,22.77266 -3.29332,3.72677 -11.84415,12.96386 -19.0018,20.52687 -7.15781,7.56301 -17.10029,18.19838 -22.0947,23.63419 -4.99425,5.4358 -12.24001,13.30438 -16.10147,17.48578 -3.86145,4.1814 -7.03246,8.1157 -7.04654,8.7429 -0.0151,0.6272 15.89892,1.1404 35.36229,1.1404 h 35.38787 z m 813.54803,16.6747 c 0,-0.6554 -7.3231,-9.0965 -16.2736,-18.7581 -31.7862,-34.31186 -48.3442,-52.36426 -54.2203,-59.1141 -3.2748,-3.76159 -7.6579,-8.55119 -9.7404,-10.64356 -2.0824,-2.09237 -10.9382,-11.65273 -19.6797,-21.24546 -8.7414,-9.59274 -19.2995,-20.92494 -23.4625,-25.18283 -4.163,-4.25772 -11.3159,-11.81207 -15.8952,-16.78733 -29.7395,-32.31111 -49.6163,-53.63473 -62.967,-67.55104 -8.4239,-8.78094 -18.9907,-20.05019 -23.4816,-25.04263 -4.4909,-4.99243 -16.0338,-17.30856 -25.6508,-27.36916 -9.617,-10.06059 -21.879,-23.06566 -27.2488,-28.90031 -5.3699,-5.83465 -16.6934,-17.80865 -25.1636,-26.6089 -8.4701,-8.80025 -17.2433,-18.05316 -19.496,-20.562 -2.2526,-2.50884 -16.7715,-17.90399 -32.2643,-34.21145 -15.4927,-16.30746 -33.6279,-35.43333 -40.3,-42.50187 -6.6722,-7.06839 -14.8562,-15.62125 -18.1866,-19.00636 l -6.0553,-6.15441 -0.4042,39.2419 c -0.2224,21.58301 0.118,40.14888 0.7569,41.25749 1.0609,1.84164 24.0487,26.34859 65.6193,69.95587 8.8088,9.24044 21.4114,22.60906 28.0058,29.70801 6.5943,7.0991 20.9178,22.15214 31.8299,33.4512 10.9121,11.2992 24.1959,25.32286 29.5195,31.16389 5.3237,5.84088 19.2843,20.55181 31.0237,32.69094 11.7394,12.13898 26.045,27.14778 31.7903,33.35297 5.7452,6.20505 12.4896,13.42777 14.9874,16.05034 16.3146,17.1299 36.6327,38.60238 58.2822,61.59384 13.7379,14.58959 31.506,33.39268 39.4847,41.78446 7.9786,8.3919 15.472,16.4294 16.6521,17.8611 1.9099,2.3174 6.0076,2.6095 37.3417,2.6609 19.358,0.032 35.1964,-0.4782 35.1964,-1.1334 z m -91.435,-187.39491 c -2.1646,-3.28552 -3.9358,-6.39587 -3.9358,-6.91193 0,-0.51606 -1.284,-2.75456 -2.8533,-4.97435 -2.9671,-4.1969 -9.0485,-14.85719 -14.4465,-25.32301 -1.7252,-3.34512 -3.4826,-6.42415 -3.9052,-6.84229 -0.4227,-0.41814 -2.7552,-4.52351 -5.1834,-9.12305 -7.0503,-13.35524 -7.6315,-14.40348 -8.4295,-15.20509 -0.7345,-0.73775 -1.3915,-1.86293 -7.8911,-13.51276 -4.289,-7.6877 -19.7024,-34.53471 -24.5415,-42.74607 -2.2176,-3.76326 -4.4224,-8.03969 -4.8992,-9.50318 -0.4767,-1.46349 -1.4687,-2.66089 -2.2041,-2.66089 -0.7356,0 -1.3373,-0.61854 -1.3373,-1.37454 0,-1.20287 -4.7516,-10.00358 -13.6244,-25.23437 -5.9142,-10.15228 -14.1455,-24.51349 -15.7367,-27.45613 -2.1106,-3.90315 -18.381,-22.46537 -37.2471,-42.49351 -7.9098,-8.39686 -26.6433,-28.48871 -41.6302,-44.64853 -14.9868,-16.15981 -30.3142,-32.6175 -34.061,-36.5728 -3.7467,-3.9553 -10.1678,-10.90296 -14.2694,-15.43955 -4.1015,-4.53644 -17.0447,-18.27226 -28.7626,-30.52406 -40.1042,-41.93108 -59.1511,-62.56864 -59.6404,-64.62087 -0.2693,-1.12913 -1.6317,-2.0536 -3.0276,-2.05451 -2.331,-0.001 -2.4765,3.34375 -1.7814,40.9838 l 0.757,40.98562 6.0553,6.4354 c 3.3304,3.53944 6.7365,7.24963 7.5691,8.24481 0.8326,0.99532 9.0072,9.59228 18.1658,19.10443 9.1587,9.51215 30.9467,32.68942 48.4177,51.50496 17.4712,18.81554 37.9409,40.71026 45.4885,48.65491 14.8857,15.66885 29.3638,31.11494 37.0557,39.53324 2.6743,2.92698 10.7472,11.518 17.9398,19.0912 7.1925,7.5732 17.4695,18.52086 22.8377,24.32814 5.3682,5.80728 17.2963,18.42735 26.5072,28.04457 9.2108,9.61722 26.2748,27.74929 37.9202,40.29349 11.6452,12.5442 26.6252,28.57568 33.2888,35.62567 6.6634,7.05 14.1591,14.98006 16.6569,17.6224 2.4978,2.64249 6.584,7.31197 9.0805,10.37702 5.7122,7.01289 6.9297,4.37861 1.6675,-3.60817 z m -707.50328,-6.35725 c 1.26647,-1.91569 8.9152,-10.32517 16.99735,-18.68797 40.36709,-41.76914 43.32289,-44.87797 107.53299,-113.09864 5.8282,-6.19227 14.3435,-15.12085 18.9228,-19.84127 4.5793,-4.72042 11.9949,-12.66204 16.4792,-17.64809 4.4844,-4.98606 17.7682,-19.03556 29.5195,-31.22137 11.7515,-12.18567 25.7533,-26.89659 31.115,-32.69094 5.3618,-5.79421 22.0591,-23.19324 37.1051,-38.66442 15.0462,-15.47118 31.4043,-32.5769 36.3514,-38.01272 4.9474,-5.43582 13.6255,-14.77114 19.2848,-20.74506 l 10.2899,-10.86161 -0.049,-43.11646 -0.048,-43.11631 -3.8982,4.56153 c -7.7392,9.056 -44.7889,49.81826 -49.0621,53.97806 -1.2886,1.25442 -6.7011,7.07037 -12.0276,12.92433 -12.9075,14.18513 -47.395,51.17744 -64.4722,69.15487 -7.5617,7.96017 -16.4176,17.54394 -19.6797,21.29731 -3.2623,3.75338 -13.0866,14.35893 -21.8321,23.56789 -28.6191,30.13634 -47.6707,51.25985 -48.1692,53.40773 -0.2692,1.15984 -1.1207,2.10894 -1.8923,2.10894 -0.7716,0 -1.4028,0.63025 -1.4028,1.40054 0,0.77029 -3.4764,7.44152 -7.7254,14.82496 -4.2488,7.38344 -9.274,16.16134 -11.167,19.50646 -4.2024,7.42647 -13.8225,24.20164 -17.4394,30.41018 -1.4616,2.50884 -5.0245,8.6669 -7.9176,13.68458 -2.8932,5.01768 -8.8371,15.28111 -13.2088,22.80763 -4.3716,7.52652 -9.4949,16.4215 -11.3847,19.76662 -3.0401,5.38062 -15.85732,27.83869 -23.59053,41.33473 -1.52608,2.66332 -4.51437,7.6103 -6.64068,10.99343 -2.12616,3.38298 -3.88099,6.67777 -3.89946,7.32155 -0.0182,0.64379 -1.36592,2.88122 -2.99403,4.97191 -1.62812,2.0907 -2.97542,4.33847 -2.99404,4.99503 -0.0575,2.0615 5.487,-1.67028 7.89549,-5.31342 z M 1224.6801,507.95733 c -5.4335,-9.00035 -9.8793,-16.63406 -9.8793,-16.96371 0,-0.3298 -2.214,-4.20193 -4.9199,-8.60501 -8.0889,-13.16168 -10.2556,-16.9926 -11.1932,-19.78943 -0.4907,-1.46349 -1.4939,-2.66089 -2.2293,-2.66089 -0.7356,0 -1.3373,-0.64545 -1.3373,-1.43445 0,-1.43399 -11.0744,-20.65155 -30.5376,-52.99216 -5.6846,-9.44571 -10.3356,-17.82752 -10.3356,-18.62624 0,-0.79872 -0.6812,-1.45208 -1.5138,-1.45208 -0.8326,0 -1.5139,-0.73213 -1.5139,-1.6268 0,-0.89466 -2.0436,-4.61003 -4.5414,-8.25651 -2.4978,-3.64649 -4.5415,-6.96469 -4.5415,-7.37386 0,-0.92402 -37.1662,-62.58582 -41.0624,-68.1261 -1.5612,-2.21979 -2.8385,-4.78565 -2.8385,-5.70191 0,-0.91626 -0.6812,-1.66587 -1.5138,-1.66587 -0.8326,0 -1.5138,-0.671 -1.5138,-1.49101 0,-0.82001 -2.329,-5.14783 -5.1756,-9.61737 -2.8464,-4.46954 -6.5069,-10.46992 -8.1341,-13.3341 -1.6272,-2.86403 -7.1442,-11.70762 -12.26,-19.65228 -5.1156,-7.94465 -9.7623,-15.47117 -10.3259,-16.72559 -0.5634,-1.25442 -4.4805,-7.7546 -8.7042,-14.44484 -4.2238,-6.69024 -8.6419,-14.05953 -9.8179,-16.37618 -1.1759,-2.3168 -2.5265,-3.68526 -3.0013,-3.04102 -0.4747,0.64409 -0.5226,27.18062 -0.1059,58.97005 l 0.7569,57.79895 7.3316,9.03639 c 7.5483,9.30368 29.6777,33.55778 56.2489,61.64948 8.326,8.80253 18.4994,19.75415 22.6073,24.33697 4.108,4.58281 13.6451,14.83271 21.1935,22.77737 24.1114,25.37684 57.4338,61.01848 59.0698,63.1808 4.3398,5.73596 28.8872,30.646 29.2499,29.68215 0.23,-0.61079 -4.0276,-8.4744 -9.4614,-17.47475 z M 825.83256,481.98567 c 4.533,-5.01768 18.0372,-19.1467 30.0091,-31.39805 11.9721,-12.25135 22.1904,-22.95163 22.7074,-23.77863 0.8271,-1.323 13.4792,-14.89506 56.289,-60.382 6.2966,-6.69024 14.5404,-15.58521 18.32,-19.76661 3.7794,-4.1814 12.0661,-13.32453 18.4147,-20.3178 l 11.5431,-12.71526 0.4136,-57.7544 c 0.2273,-31.7648 0,-58.00665 -0.4914,-58.31501 -0.7804,-0.48383 -14.6977,20.14781 -16.3327,24.21243 -0.3218,0.80024 -7.3043,11.98769 -15.5166,24.86078 -8.2122,12.87308 -14.9313,24.05323 -14.9313,24.84496 0,0.79173 -0.6812,1.43962 -1.5138,1.43962 -0.8326,0 -1.5139,0.67723 -1.5139,1.50484 0,0.82777 -3.0655,6.3086 -6.8122,12.17974 -3.7467,5.87099 -6.8122,10.99312 -6.8122,11.38237 0,0.3891 -4.4279,7.58324 -9.8398,15.98679 -5.4119,8.40339 -9.8399,15.58065 -9.8399,15.94938 0,0.36857 -3.7467,6.50382 -8.326,13.63364 -4.5793,7.12982 -8.326,13.65386 -8.326,14.49775 0,0.84403 -0.6812,1.53449 -1.5138,1.53449 -0.8326,0 -1.5138,0.67724 -1.5138,1.50485 0,0.82777 -3.0655,6.30859 -6.8122,12.17973 -3.7468,5.87099 -6.8122,10.98583 -6.8122,11.36642 0,0.38043 -3.7468,6.52526 -8.3261,13.65508 -4.5793,7.12982 -8.326,13.32224 -8.326,13.76091 0,0.43866 -2.2703,4.37922 -5.045,8.75676 -5.2746,8.32144 -13.21,21.46837 -17.6532,29.24653 -1.4332,2.50884 -6.4495,10.97808 -11.1474,18.82041 -4.6977,7.84248 -8.5414,14.45715 -8.5414,14.69936 0,0.24222 -3.0655,5.64839 -6.8122,12.01355 -3.7467,6.3653 -6.8122,11.93204 -6.8122,12.3704 0,0.43851 -1.7031,3.31456 -3.7846,6.39131 -7.7993,11.52849 -3.2938,8.89041 11.8163,-6.91878 8.5804,-8.97738 19.3096,-20.42788 23.8427,-25.44556 z"
       id="path9" />
  </g>
</svg>
